<mxfile host="app.diagrams.net" modified="2023-09-26T16:25:27.720Z" agent="Mozilla/5.0 (Windows NT 10.0; Win64; x64) AppleWebKit/537.36 (KHTML, like Gecko) Chrome/117.0.0.0 Safari/537.36" etag="5M91_swq0-3q0ylFqna-" version="21.8.2" type="device">
  <diagram name="Страница — 1" id="GnSCQww6XoY2D_I-w1qQ">
    <mxGraphModel dx="707" dy="452" grid="1" gridSize="10" guides="1" tooltips="1" connect="1" arrows="1" fold="1" page="1" pageScale="1" pageWidth="3300" pageHeight="2339" math="0" shadow="0">
      <root>
        <mxCell id="0" />
        <mxCell id="1" parent="0" />
        <mxCell id="6fhiK-dv3YmNcR4Dkuwi-2" value="&lt;font face=&quot;Comic Sans MS&quot;&gt;&lt;font color=&quot;#6600cc&quot;&gt;Mental&lt;/font&gt;&lt;font color=&quot;#006600&quot;&gt;Hub&lt;/font&gt;&lt;/font&gt;" style="strokeWidth=1;shadow=0;dashed=0;align=center;html=1;shape=mxgraph.mockup.containers.window;align=left;verticalAlign=top;spacingLeft=8;strokeColor2=#008cff;strokeColor3=#c4c4c4;fontColor=#666666;mainText=;fontSize=17;labelBackgroundColor=none;whiteSpace=wrap;" parent="1" vertex="1">
          <mxGeometry x="860" y="40" width="250" height="440" as="geometry" />
        </mxCell>
        <mxCell id="6fhiK-dv3YmNcR4Dkuwi-6" value="&lt;font color=&quot;#000000&quot;&gt;&lt;span style=&quot;font-size: 25px;&quot;&gt;Авторизація&lt;/span&gt;&lt;/font&gt;" style="strokeWidth=0;shadow=0;dashed=0;align=center;html=1;shape=mxgraph.mockup.forms.pwField;strokeColor=#FFFFFF;mainText=;align=left;fontColor=#666666;fontSize=17;spacingLeft=3;fontFamily=Ubuntu;fontSource=https%3A%2F%2Ffonts.googleapis.com%2Fcss%3Ffamily%3DUbuntu;" parent="1" vertex="1">
          <mxGeometry x="906.25" y="120" width="157.5" height="30" as="geometry" />
        </mxCell>
        <mxCell id="6fhiK-dv3YmNcR4Dkuwi-7" value="&lt;font data-font-src=&quot;https://fonts.googleapis.com/css?family=Ubuntu&quot; face=&quot;Ubuntu&quot; style=&quot;font-size: 10px;&quot; color=&quot;#000000&quot;&gt;Username&lt;/font&gt;" style="strokeWidth=1;shadow=0;dashed=0;align=center;html=1;shape=mxgraph.mockup.forms.pwField;strokeColor=#FFFCF7;mainText=;align=left;fontColor=#666666;fontSize=17;spacingLeft=3;" parent="1" vertex="1">
          <mxGeometry x="905" y="177" width="60" height="30" as="geometry" />
        </mxCell>
        <mxCell id="6fhiK-dv3YmNcR4Dkuwi-4" value="&lt;font color=&quot;#000000&quot;&gt;********&lt;/font&gt;" style="strokeWidth=1;shadow=0;dashed=0;align=center;html=1;shape=mxgraph.mockup.forms.pwField;strokeColor=#000000;mainText=;align=left;fontColor=#666666;fontSize=17;spacingLeft=3;" parent="1" vertex="1">
          <mxGeometry x="910" y="200" width="150" height="30" as="geometry" />
        </mxCell>
        <mxCell id="6fhiK-dv3YmNcR4Dkuwi-8" value="&lt;font data-font-src=&quot;https://fonts.googleapis.com/css?family=Ubuntu&quot; face=&quot;Ubuntu&quot; style=&quot;font-size: 10px;&quot; color=&quot;#000000&quot;&gt;Password&lt;/font&gt;" style="strokeWidth=1;shadow=0;dashed=0;align=center;html=1;shape=mxgraph.mockup.forms.pwField;strokeColor=#FFFCF7;mainText=;align=left;fontColor=#666666;fontSize=17;spacingLeft=3;" parent="1" vertex="1">
          <mxGeometry x="905" y="238" width="60" height="30" as="geometry" />
        </mxCell>
        <mxCell id="6fhiK-dv3YmNcR4Dkuwi-3" value="&lt;font color=&quot;#0d0d0d&quot;&gt;********&lt;/font&gt;" style="strokeWidth=1;shadow=0;dashed=0;align=center;html=1;shape=mxgraph.mockup.forms.pwField;strokeColor=#0F0F0F;mainText=;align=left;fontColor=#666666;fontSize=17;spacingLeft=3;" parent="1" vertex="1">
          <mxGeometry x="910" y="260" width="150" height="30" as="geometry" />
        </mxCell>
        <mxCell id="6fhiK-dv3YmNcR4Dkuwi-9" value="&lt;font style=&quot;font-size: 16px;&quot; data-font-src=&quot;https://fonts.googleapis.com/css?family=Ubuntu&quot; face=&quot;Ubuntu&quot;&gt;Увійти&lt;/font&gt;" style="strokeWidth=1;shadow=0;dashed=0;align=center;html=1;shape=mxgraph.mockup.buttons.button;strokeColor=#666666;fontColor=#ffffff;mainText=;buttonStyle=round;fontSize=17;fontStyle=1;fillColor=#008cff;whiteSpace=wrap;" parent="1" vertex="1">
          <mxGeometry x="923.75" y="350" width="127.5" height="50" as="geometry" />
        </mxCell>
        <mxCell id="6fhiK-dv3YmNcR4Dkuwi-10" value="&lt;font face=&quot;Ubuntu&quot;&gt;&lt;span style=&quot;font-size: 11px;&quot;&gt;У мене відсутній акаунт&lt;/span&gt;&lt;/font&gt;" style="strokeWidth=1;shadow=0;dashed=0;align=center;html=1;shape=mxgraph.mockup.buttons.button;strokeColor=#666666;fontColor=#ffffff;mainText=;buttonStyle=round;fontSize=17;fontStyle=1;fillColor=#008cff;verticalAlign=middle;horizontal=1;whiteSpace=wrap;labelBackgroundColor=none;labelBorderColor=none;spacing=0;" parent="1" vertex="1">
          <mxGeometry x="932.5" y="410" width="110" height="40" as="geometry" />
        </mxCell>
        <mxCell id="6fhiK-dv3YmNcR4Dkuwi-14" value="&lt;font face=&quot;Comic Sans MS&quot;&gt;&lt;font color=&quot;#6600cc&quot;&gt;Mental&lt;/font&gt;&lt;font color=&quot;#006600&quot;&gt;Hub&lt;/font&gt;&lt;/font&gt;" style="strokeWidth=1;shadow=0;dashed=0;align=center;html=1;shape=mxgraph.mockup.containers.window;align=left;verticalAlign=top;spacingLeft=8;strokeColor2=#008cff;strokeColor3=#c4c4c4;fontColor=#666666;mainText=;fontSize=17;labelBackgroundColor=none;whiteSpace=wrap;" parent="1" vertex="1">
          <mxGeometry x="1310" y="40" width="250" height="440" as="geometry" />
        </mxCell>
        <mxCell id="6fhiK-dv3YmNcR4Dkuwi-15" value="&lt;font color=&quot;#000000&quot;&gt;&lt;span style=&quot;font-size: 25px;&quot;&gt;Реєстрація&lt;/span&gt;&lt;/font&gt;" style="strokeWidth=0;shadow=0;dashed=0;align=center;html=1;shape=mxgraph.mockup.forms.pwField;strokeColor=#FFFFFF;mainText=;align=left;fontColor=#666666;fontSize=17;spacingLeft=3;fontFamily=Ubuntu;fontSource=https%3A%2F%2Ffonts.googleapis.com%2Fcss%3Ffamily%3DUbuntu;" parent="1" vertex="1">
          <mxGeometry x="1368.13" y="120" width="133.75" height="30" as="geometry" />
        </mxCell>
        <mxCell id="6fhiK-dv3YmNcR4Dkuwi-16" value="&lt;font data-font-src=&quot;https://fonts.googleapis.com/css?family=Ubuntu&quot; face=&quot;Ubuntu&quot; style=&quot;font-size: 10px;&quot; color=&quot;#000000&quot;&gt;Username&lt;/font&gt;" style="strokeWidth=1;shadow=0;dashed=0;align=center;html=1;shape=mxgraph.mockup.forms.pwField;strokeColor=#FFFCF7;mainText=;align=left;fontColor=#666666;fontSize=17;spacingLeft=3;" parent="1" vertex="1">
          <mxGeometry x="1355" y="177" width="60" height="30" as="geometry" />
        </mxCell>
        <mxCell id="6fhiK-dv3YmNcR4Dkuwi-17" value="&lt;font color=&quot;#000000&quot;&gt;********&lt;/font&gt;" style="strokeWidth=1;shadow=0;dashed=0;align=center;html=1;shape=mxgraph.mockup.forms.pwField;strokeColor=#000000;mainText=;align=left;fontColor=#666666;fontSize=17;spacingLeft=3;" parent="1" vertex="1">
          <mxGeometry x="1360" y="200" width="150" height="30" as="geometry" />
        </mxCell>
        <mxCell id="6fhiK-dv3YmNcR4Dkuwi-18" value="&lt;font data-font-src=&quot;https://fonts.googleapis.com/css?family=Ubuntu&quot; face=&quot;Ubuntu&quot; style=&quot;font-size: 10px;&quot; color=&quot;#000000&quot;&gt;Password&lt;/font&gt;" style="strokeWidth=1;shadow=0;dashed=0;align=center;html=1;shape=mxgraph.mockup.forms.pwField;strokeColor=#FFFCF7;mainText=;align=left;fontColor=#666666;fontSize=17;spacingLeft=3;" parent="1" vertex="1">
          <mxGeometry x="1355" y="238" width="60" height="30" as="geometry" />
        </mxCell>
        <mxCell id="6fhiK-dv3YmNcR4Dkuwi-19" value="&lt;font color=&quot;#0d0d0d&quot;&gt;********&lt;/font&gt;" style="strokeWidth=1;shadow=0;dashed=0;align=center;html=1;shape=mxgraph.mockup.forms.pwField;strokeColor=#0F0F0F;mainText=;align=left;fontColor=#666666;fontSize=17;spacingLeft=3;" parent="1" vertex="1">
          <mxGeometry x="1360" y="260" width="150" height="30" as="geometry" />
        </mxCell>
        <mxCell id="6fhiK-dv3YmNcR4Dkuwi-20" value="&lt;font face=&quot;Ubuntu&quot;&gt;&lt;span style=&quot;font-size: 16px;&quot;&gt;Створити&lt;br&gt;акаунт&lt;br&gt;&lt;/span&gt;&lt;/font&gt;" style="strokeWidth=1;shadow=0;dashed=0;align=center;html=1;shape=mxgraph.mockup.buttons.button;strokeColor=#666666;fontColor=#ffffff;mainText=;buttonStyle=round;fontSize=17;fontStyle=1;fillColor=#008cff;whiteSpace=wrap;" parent="1" vertex="1">
          <mxGeometry x="1373.75" y="350" width="127.5" height="50" as="geometry" />
        </mxCell>
        <mxCell id="6fhiK-dv3YmNcR4Dkuwi-21" value="&lt;font face=&quot;Ubuntu&quot;&gt;&lt;span style=&quot;font-size: 11px;&quot;&gt;Увійти&lt;/span&gt;&lt;/font&gt;" style="strokeWidth=1;shadow=0;dashed=0;align=center;html=1;shape=mxgraph.mockup.buttons.button;strokeColor=#666666;fontColor=#ffffff;mainText=;buttonStyle=round;fontSize=17;fontStyle=1;fillColor=#008cff;verticalAlign=middle;horizontal=1;whiteSpace=wrap;labelBackgroundColor=none;labelBorderColor=none;spacing=0;" parent="1" vertex="1">
          <mxGeometry x="1382.5" y="410" width="110" height="40" as="geometry" />
        </mxCell>
        <mxCell id="fYolHv9IbK95dR3w9ptZ-1" value="&lt;font face=&quot;Comic Sans MS&quot;&gt;&lt;font color=&quot;#6600cc&quot;&gt;Mental&lt;/font&gt;&lt;font color=&quot;#006600&quot;&gt;Hub&lt;/font&gt;&lt;/font&gt;" style="strokeWidth=1;shadow=0;dashed=0;align=center;html=1;shape=mxgraph.mockup.containers.window;align=left;verticalAlign=top;spacingLeft=8;strokeColor2=#008cff;strokeColor3=#c4c4c4;fontColor=#666666;mainText=;fontSize=17;labelBackgroundColor=none;whiteSpace=wrap;" vertex="1" parent="1">
          <mxGeometry x="1080" y="610" width="250" height="440" as="geometry" />
        </mxCell>
        <mxCell id="fYolHv9IbK95dR3w9ptZ-2" value="&lt;font color=&quot;#000000&quot;&gt;&lt;span style=&quot;font-size: 25px;&quot;&gt;Послуги&lt;/span&gt;&lt;/font&gt;" style="strokeWidth=0;shadow=0;dashed=0;align=center;html=1;shape=mxgraph.mockup.forms.pwField;strokeColor=#FFFFFF;mainText=;align=left;fontColor=#666666;fontSize=17;spacingLeft=3;fontFamily=Ubuntu;fontSource=https%3A%2F%2Ffonts.googleapis.com%2Fcss%3Ffamily%3DUbuntu;" vertex="1" parent="1">
          <mxGeometry x="1154.06" y="680" width="101.87" height="30" as="geometry" />
        </mxCell>
        <mxCell id="fYolHv9IbK95dR3w9ptZ-4" value="&lt;div style=&quot;&quot;&gt;&lt;br&gt;&lt;/div&gt;" style="strokeWidth=1;shadow=0;dashed=0;align=center;html=1;shape=mxgraph.mockup.forms.pwField;strokeColor=#000000;mainText=;align=left;fontColor=#666666;fontSize=17;spacingLeft=3;verticalAlign=middle;" vertex="1" parent="1">
          <mxGeometry x="1130" y="770" width="150" height="30" as="geometry" />
        </mxCell>
        <mxCell id="fYolHv9IbK95dR3w9ptZ-6" value="" style="strokeWidth=1;shadow=0;dashed=0;align=center;html=1;shape=mxgraph.mockup.forms.pwField;strokeColor=#0F0F0F;mainText=;align=left;fontColor=#666666;fontSize=17;spacingLeft=3;" vertex="1" parent="1">
          <mxGeometry x="1130" y="830" width="150" height="30" as="geometry" />
        </mxCell>
        <mxCell id="fYolHv9IbK95dR3w9ptZ-10" value="&lt;font style=&quot;font-size: 13px;&quot; data-font-src=&quot;https://fonts.googleapis.com/css?family=Ubuntu&quot; face=&quot;Ubuntu&quot;&gt;&lt;b&gt;Психологічне&lt;br&gt;здоров&#39;я&lt;/b&gt;&lt;/font&gt;" style="text;html=1;align=center;verticalAlign=middle;resizable=0;points=[];autosize=1;strokeColor=none;fillColor=none;" vertex="1" parent="1">
          <mxGeometry x="1149.99" y="765" width="110" height="40" as="geometry" />
        </mxCell>
        <mxCell id="fYolHv9IbK95dR3w9ptZ-11" value="&lt;font size=&quot;1&quot; face=&quot;Ubuntu&quot;&gt;&lt;b style=&quot;font-size: 13px;&quot;&gt;Сон&lt;/b&gt;&lt;/font&gt;" style="text;html=1;align=center;verticalAlign=middle;resizable=0;points=[];autosize=1;strokeColor=none;fillColor=none;" vertex="1" parent="1">
          <mxGeometry x="1179.99" y="830" width="50" height="30" as="geometry" />
        </mxCell>
        <mxCell id="fYolHv9IbK95dR3w9ptZ-12" value="" style="strokeWidth=1;shadow=0;dashed=0;align=center;html=1;shape=mxgraph.mockup.forms.pwField;strokeColor=#0F0F0F;mainText=;align=left;fontColor=#666666;fontSize=17;spacingLeft=3;" vertex="1" parent="1">
          <mxGeometry x="1129.99" y="890" width="150" height="30" as="geometry" />
        </mxCell>
        <mxCell id="fYolHv9IbK95dR3w9ptZ-13" value="&lt;font face=&quot;Ubuntu&quot;&gt;&lt;span style=&quot;font-size: 13px;&quot;&gt;&lt;b&gt;Література&lt;/b&gt;&lt;/span&gt;&lt;/font&gt;" style="text;html=1;align=center;verticalAlign=middle;resizable=0;points=[];autosize=1;strokeColor=none;fillColor=none;" vertex="1" parent="1">
          <mxGeometry x="1159.98" y="890" width="90" height="30" as="geometry" />
        </mxCell>
        <mxCell id="fYolHv9IbK95dR3w9ptZ-14" value="" style="html=1;verticalLabelPosition=bottom;align=center;labelBackgroundColor=#ffffff;verticalAlign=top;strokeWidth=2;strokeColor=#0080F0;shadow=0;dashed=0;shape=mxgraph.ios7.icons.settings;" vertex="1" parent="1">
          <mxGeometry x="1295" y="645" width="30" height="30" as="geometry" />
        </mxCell>
        <mxCell id="fYolHv9IbK95dR3w9ptZ-16" value="&lt;font face=&quot;Comic Sans MS&quot;&gt;&lt;font color=&quot;#6600cc&quot;&gt;Mental&lt;/font&gt;&lt;font color=&quot;#006600&quot;&gt;Hub&lt;/font&gt;&lt;/font&gt;" style="strokeWidth=1;shadow=0;dashed=0;align=center;html=1;shape=mxgraph.mockup.containers.window;align=left;verticalAlign=top;spacingLeft=8;strokeColor2=#008cff;strokeColor3=#c4c4c4;fontColor=#666666;mainText=;fontSize=17;labelBackgroundColor=none;whiteSpace=wrap;" vertex="1" parent="1">
          <mxGeometry x="700" y="610" width="250" height="440" as="geometry" />
        </mxCell>
        <mxCell id="fYolHv9IbK95dR3w9ptZ-17" value="&lt;div style=&quot;text-align: center;&quot;&gt;&lt;span style=&quot;font-size: 25px; color: rgb(0, 0, 0); background-color: initial;&quot;&gt;Психологічне&lt;/span&gt;&lt;/div&gt;&lt;font color=&quot;#000000&quot;&gt;&lt;div style=&quot;text-align: center;&quot;&gt;&lt;span style=&quot;font-size: 25px; background-color: initial;&quot;&gt;здоров&#39;я&lt;/span&gt;&lt;/div&gt;&lt;/font&gt;" style="strokeWidth=0;shadow=0;dashed=0;align=center;html=1;shape=mxgraph.mockup.forms.pwField;strokeColor=#FFFFFF;mainText=;align=left;fontColor=#666666;fontSize=17;spacingLeft=3;fontFamily=Ubuntu;fontSource=https%3A%2F%2Ffonts.googleapis.com%2Fcss%3Ffamily%3DUbuntu;" vertex="1" parent="1">
          <mxGeometry x="739.98" y="670" width="170" height="50" as="geometry" />
        </mxCell>
        <mxCell id="fYolHv9IbK95dR3w9ptZ-18" value="&lt;div style=&quot;&quot;&gt;&lt;br&gt;&lt;/div&gt;" style="strokeWidth=1;shadow=0;dashed=0;align=center;html=1;shape=mxgraph.mockup.forms.pwField;strokeColor=#000000;mainText=;align=left;fontColor=#666666;fontSize=17;spacingLeft=3;verticalAlign=middle;" vertex="1" parent="1">
          <mxGeometry x="750" y="770" width="150" height="30" as="geometry" />
        </mxCell>
        <mxCell id="fYolHv9IbK95dR3w9ptZ-19" value="" style="strokeWidth=1;shadow=0;dashed=0;align=center;html=1;shape=mxgraph.mockup.forms.pwField;strokeColor=#0F0F0F;mainText=;align=left;fontColor=#666666;fontSize=17;spacingLeft=3;" vertex="1" parent="1">
          <mxGeometry x="750" y="830" width="150" height="30" as="geometry" />
        </mxCell>
        <mxCell id="fYolHv9IbK95dR3w9ptZ-21" value="&lt;font face=&quot;Ubuntu&quot;&gt;&lt;span style=&quot;font-size: 13px;&quot;&gt;&lt;b&gt;Рекомендації&lt;/b&gt;&lt;/span&gt;&lt;/font&gt;" style="text;html=1;align=center;verticalAlign=middle;resizable=0;points=[];autosize=1;strokeColor=none;fillColor=none;" vertex="1" parent="1">
          <mxGeometry x="769.99" y="830" width="110" height="30" as="geometry" />
        </mxCell>
        <mxCell id="fYolHv9IbK95dR3w9ptZ-22" value="" style="strokeWidth=1;shadow=0;dashed=0;align=center;html=1;shape=mxgraph.mockup.forms.pwField;strokeColor=#0F0F0F;mainText=;align=left;fontColor=#666666;fontSize=17;spacingLeft=3;" vertex="1" parent="1">
          <mxGeometry x="749.99" y="890" width="150" height="30" as="geometry" />
        </mxCell>
        <mxCell id="fYolHv9IbK95dR3w9ptZ-23" value="&lt;font face=&quot;Ubuntu&quot;&gt;&lt;span style=&quot;font-size: 13px;&quot;&gt;&lt;b&gt;Психологічні тести&lt;/b&gt;&lt;/span&gt;&lt;/font&gt;" style="text;html=1;align=center;verticalAlign=middle;resizable=0;points=[];autosize=1;strokeColor=none;fillColor=none;" vertex="1" parent="1">
          <mxGeometry x="754.98" y="890" width="140" height="30" as="geometry" />
        </mxCell>
        <mxCell id="fYolHv9IbK95dR3w9ptZ-25" value="&lt;font face=&quot;Comic Sans MS&quot;&gt;&lt;font color=&quot;#6600cc&quot;&gt;Mental&lt;/font&gt;&lt;font color=&quot;#006600&quot;&gt;Hub&lt;/font&gt;&lt;/font&gt;" style="strokeWidth=1;shadow=0;dashed=0;align=center;html=1;shape=mxgraph.mockup.containers.window;align=left;verticalAlign=top;spacingLeft=8;strokeColor2=#008cff;strokeColor3=#c4c4c4;fontColor=#666666;mainText=;fontSize=17;labelBackgroundColor=none;whiteSpace=wrap;" vertex="1" parent="1">
          <mxGeometry x="1440" y="610" width="250" height="440" as="geometry" />
        </mxCell>
        <mxCell id="fYolHv9IbK95dR3w9ptZ-26" value="&lt;font color=&quot;#000000&quot;&gt;&lt;span style=&quot;font-size: 25px;&quot;&gt;Сон&lt;/span&gt;&lt;/font&gt;" style="strokeWidth=0;shadow=0;dashed=0;align=center;html=1;shape=mxgraph.mockup.forms.pwField;strokeColor=#FFFFFF;mainText=;align=left;fontColor=#666666;fontSize=17;spacingLeft=3;fontFamily=Ubuntu;fontSource=https%3A%2F%2Ffonts.googleapis.com%2Fcss%3Ffamily%3DUbuntu;" vertex="1" parent="1">
          <mxGeometry x="1537.01" y="680" width="55.94" height="30" as="geometry" />
        </mxCell>
        <mxCell id="fYolHv9IbK95dR3w9ptZ-27" value="&lt;div style=&quot;&quot;&gt;&lt;br&gt;&lt;/div&gt;" style="strokeWidth=1;shadow=0;dashed=0;align=center;html=1;shape=mxgraph.mockup.forms.pwField;strokeColor=#000000;mainText=;align=left;fontColor=#666666;fontSize=17;spacingLeft=3;verticalAlign=middle;" vertex="1" parent="1">
          <mxGeometry x="1490" y="770" width="150" height="30" as="geometry" />
        </mxCell>
        <mxCell id="fYolHv9IbK95dR3w9ptZ-28" value="" style="strokeWidth=1;shadow=0;dashed=0;align=center;html=1;shape=mxgraph.mockup.forms.pwField;strokeColor=#0F0F0F;mainText=;align=left;fontColor=#666666;fontSize=17;spacingLeft=3;" vertex="1" parent="1">
          <mxGeometry x="1490" y="830" width="150" height="30" as="geometry" />
        </mxCell>
        <mxCell id="fYolHv9IbK95dR3w9ptZ-29" value="&lt;font face=&quot;Ubuntu&quot;&gt;&lt;span style=&quot;font-size: 13px;&quot;&gt;&lt;b&gt;Зв&#39;язатись з &lt;br&gt;консультантом&lt;/b&gt;&lt;/span&gt;&lt;/font&gt;" style="text;html=1;align=center;verticalAlign=middle;resizable=0;points=[];autosize=1;strokeColor=none;fillColor=none;" vertex="1" parent="1">
          <mxGeometry x="1504.99" y="765" width="120" height="40" as="geometry" />
        </mxCell>
        <mxCell id="fYolHv9IbK95dR3w9ptZ-30" value="&lt;font size=&quot;1&quot; face=&quot;Ubuntu&quot;&gt;&lt;b style=&quot;font-size: 13px;&quot;&gt;Рекомендації&lt;/b&gt;&lt;/font&gt;" style="text;html=1;align=center;verticalAlign=middle;resizable=0;points=[];autosize=1;strokeColor=none;fillColor=none;" vertex="1" parent="1">
          <mxGeometry x="1509.99" y="830" width="110" height="30" as="geometry" />
        </mxCell>
        <mxCell id="fYolHv9IbK95dR3w9ptZ-31" value="" style="strokeWidth=1;shadow=0;dashed=0;align=center;html=1;shape=mxgraph.mockup.forms.pwField;strokeColor=#0F0F0F;mainText=;align=left;fontColor=#666666;fontSize=17;spacingLeft=3;" vertex="1" parent="1">
          <mxGeometry x="1489.99" y="890" width="150" height="30" as="geometry" />
        </mxCell>
        <mxCell id="fYolHv9IbK95dR3w9ptZ-34" value="&lt;font face=&quot;Comic Sans MS&quot;&gt;&lt;font color=&quot;#6600cc&quot;&gt;Mental&lt;/font&gt;&lt;font color=&quot;#006600&quot;&gt;Hub&lt;/font&gt;&lt;/font&gt;" style="strokeWidth=1;shadow=0;dashed=0;align=center;html=1;shape=mxgraph.mockup.containers.window;align=left;verticalAlign=top;spacingLeft=8;strokeColor2=#008cff;strokeColor3=#c4c4c4;fontColor=#666666;mainText=;fontSize=17;labelBackgroundColor=none;whiteSpace=wrap;" vertex="1" parent="1">
          <mxGeometry x="1080" y="1150" width="250" height="440" as="geometry" />
        </mxCell>
        <mxCell id="fYolHv9IbK95dR3w9ptZ-35" value="&lt;font color=&quot;#000000&quot;&gt;&lt;span style=&quot;font-size: 25px;&quot;&gt;Література&lt;/span&gt;&lt;/font&gt;" style="strokeWidth=0;shadow=0;dashed=0;align=center;html=1;shape=mxgraph.mockup.forms.pwField;strokeColor=#FFFFFF;mainText=;align=left;fontColor=#666666;fontSize=17;spacingLeft=3;fontFamily=Ubuntu;fontSource=https%3A%2F%2Ffonts.googleapis.com%2Fcss%3Ffamily%3DUbuntu;" vertex="1" parent="1">
          <mxGeometry x="1137.03" y="1215" width="135.94" height="30" as="geometry" />
        </mxCell>
        <mxCell id="fYolHv9IbK95dR3w9ptZ-36" value="&lt;div style=&quot;&quot;&gt;&lt;br&gt;&lt;/div&gt;" style="strokeWidth=1;shadow=0;dashed=0;align=center;html=1;shape=mxgraph.mockup.forms.pwField;strokeColor=#000000;mainText=;align=left;fontColor=#666666;fontSize=17;spacingLeft=3;verticalAlign=middle;" vertex="1" parent="1">
          <mxGeometry x="1130" y="1310" width="150" height="30" as="geometry" />
        </mxCell>
        <mxCell id="fYolHv9IbK95dR3w9ptZ-37" value="" style="strokeWidth=1;shadow=0;dashed=0;align=center;html=1;shape=mxgraph.mockup.forms.pwField;strokeColor=#0F0F0F;mainText=;align=left;fontColor=#666666;fontSize=17;spacingLeft=3;" vertex="1" parent="1">
          <mxGeometry x="1130" y="1370" width="150" height="30" as="geometry" />
        </mxCell>
        <mxCell id="fYolHv9IbK95dR3w9ptZ-38" value="&lt;font face=&quot;Ubuntu&quot;&gt;&lt;span style=&quot;font-size: 13px;&quot;&gt;&lt;b&gt;Пошук книг&lt;/b&gt;&lt;/span&gt;&lt;/font&gt;" style="text;html=1;align=center;verticalAlign=middle;resizable=0;points=[];autosize=1;strokeColor=none;fillColor=none;" vertex="1" parent="1">
          <mxGeometry x="1154.99" y="1310" width="100" height="30" as="geometry" />
        </mxCell>
        <mxCell id="fYolHv9IbK95dR3w9ptZ-39" value="&lt;font size=&quot;1&quot; face=&quot;Ubuntu&quot;&gt;&lt;b style=&quot;font-size: 13px;&quot;&gt;Блог&lt;/b&gt;&lt;/font&gt;" style="text;html=1;align=center;verticalAlign=middle;resizable=0;points=[];autosize=1;strokeColor=none;fillColor=none;" vertex="1" parent="1">
          <mxGeometry x="1179.99" y="1370" width="50" height="30" as="geometry" />
        </mxCell>
        <mxCell id="fYolHv9IbK95dR3w9ptZ-43" value="&lt;font face=&quot;Comic Sans MS&quot;&gt;&lt;font color=&quot;#6600cc&quot;&gt;Mental&lt;/font&gt;&lt;font color=&quot;#006600&quot;&gt;Hub&lt;/font&gt;&lt;/font&gt;" style="strokeWidth=1;shadow=0;dashed=0;align=center;html=1;shape=mxgraph.mockup.containers.window;align=left;verticalAlign=top;spacingLeft=8;strokeColor2=#008cff;strokeColor3=#c4c4c4;fontColor=#666666;mainText=;fontSize=17;labelBackgroundColor=none;whiteSpace=wrap;" vertex="1" parent="1">
          <mxGeometry x="1770" y="40" width="250" height="440" as="geometry" />
        </mxCell>
        <mxCell id="fYolHv9IbK95dR3w9ptZ-44" value="&lt;font color=&quot;#000000&quot;&gt;&lt;span style=&quot;font-size: 25px;&quot;&gt;Налаштування&lt;/span&gt;&lt;/font&gt;" style="strokeWidth=0;shadow=0;dashed=0;align=center;html=1;shape=mxgraph.mockup.forms.pwField;strokeColor=#FFFFFF;mainText=;align=left;fontColor=#666666;fontSize=17;spacingLeft=3;fontFamily=Ubuntu;fontSource=https%3A%2F%2Ffonts.googleapis.com%2Fcss%3Ffamily%3DUbuntu;" vertex="1" parent="1">
          <mxGeometry x="1806" y="110" width="177.99" height="30" as="geometry" />
        </mxCell>
        <mxCell id="fYolHv9IbK95dR3w9ptZ-45" value="&lt;div style=&quot;&quot;&gt;&lt;br&gt;&lt;/div&gt;" style="strokeWidth=1;shadow=0;dashed=0;align=center;html=1;shape=mxgraph.mockup.forms.pwField;strokeColor=#000000;mainText=;align=left;fontColor=#666666;fontSize=17;spacingLeft=3;verticalAlign=middle;" vertex="1" parent="1">
          <mxGeometry x="1820" y="200" width="150" height="30" as="geometry" />
        </mxCell>
        <mxCell id="fYolHv9IbK95dR3w9ptZ-46" value="" style="strokeWidth=1;shadow=0;dashed=0;align=center;html=1;shape=mxgraph.mockup.forms.pwField;strokeColor=#0F0F0F;mainText=;align=left;fontColor=#666666;fontSize=17;spacingLeft=3;" vertex="1" parent="1">
          <mxGeometry x="1820" y="260" width="150" height="30" as="geometry" />
        </mxCell>
        <mxCell id="fYolHv9IbK95dR3w9ptZ-47" value="&lt;font face=&quot;Ubuntu&quot;&gt;&lt;span style=&quot;font-size: 13px;&quot;&gt;&lt;b&gt;Змінити пароль&lt;/b&gt;&lt;/span&gt;&lt;/font&gt;" style="text;html=1;align=center;verticalAlign=middle;resizable=0;points=[];autosize=1;strokeColor=none;fillColor=none;" vertex="1" parent="1">
          <mxGeometry x="1834.99" y="200" width="120" height="30" as="geometry" />
        </mxCell>
        <mxCell id="fYolHv9IbK95dR3w9ptZ-48" value="&lt;font size=&quot;1&quot; face=&quot;Ubuntu&quot;&gt;&lt;b style=&quot;font-size: 13px;&quot;&gt;Змінити пошту&lt;/b&gt;&lt;/font&gt;" style="text;html=1;align=center;verticalAlign=middle;resizable=0;points=[];autosize=1;strokeColor=none;fillColor=none;" vertex="1" parent="1">
          <mxGeometry x="1839.99" y="260" width="110" height="30" as="geometry" />
        </mxCell>
        <mxCell id="fYolHv9IbK95dR3w9ptZ-49" value="" style="strokeWidth=1;shadow=0;dashed=0;align=center;html=1;shape=mxgraph.mockup.forms.pwField;strokeColor=#0F0F0F;mainText=;align=left;fontColor=#666666;fontSize=17;spacingLeft=3;" vertex="1" parent="1">
          <mxGeometry x="1819.99" y="320" width="150" height="30" as="geometry" />
        </mxCell>
        <mxCell id="fYolHv9IbK95dR3w9ptZ-50" value="&lt;font face=&quot;Ubuntu&quot;&gt;&lt;span style=&quot;font-size: 13px;&quot;&gt;&lt;b&gt;Обрати тему&lt;/b&gt;&lt;/span&gt;&lt;/font&gt;" style="text;html=1;align=center;verticalAlign=middle;resizable=0;points=[];autosize=1;strokeColor=none;fillColor=none;" vertex="1" parent="1">
          <mxGeometry x="1844.98" y="320" width="100" height="30" as="geometry" />
        </mxCell>
        <mxCell id="fYolHv9IbK95dR3w9ptZ-63" value="&lt;font color=&quot;#000000&quot; style=&quot;font-size: 9px;&quot;&gt;Сума замовлення: **** грн.&lt;/font&gt;" style="strokeWidth=1;shadow=0;dashed=0;align=center;html=1;shape=mxgraph.mockup.text.textBox;fontColor=#666666;align=left;fontSize=17;spacingLeft=4;spacingTop=-3;whiteSpace=wrap;strokeColor=#000000;mainText=" vertex="1" parent="1">
          <mxGeometry x="1149.99" y="1180" width="180.01" height="31" as="geometry" />
        </mxCell>
        <mxCell id="fYolHv9IbK95dR3w9ptZ-62" value="" style="verticalLabelPosition=bottom;shadow=0;dashed=0;align=center;html=1;verticalAlign=top;strokeWidth=1;shape=mxgraph.mockup.misc.shoppingCart;strokeColor=#0080f0;" vertex="1" parent="1">
          <mxGeometry x="1299" y="1181" width="30" height="30" as="geometry" />
        </mxCell>
        <mxCell id="fYolHv9IbK95dR3w9ptZ-64" value="&lt;font face=&quot;Comic Sans MS&quot;&gt;&lt;font color=&quot;#6600cc&quot;&gt;Mental&lt;/font&gt;&lt;font color=&quot;#006600&quot;&gt;Hub&lt;/font&gt;&lt;/font&gt;" style="strokeWidth=1;shadow=0;dashed=0;align=center;html=1;shape=mxgraph.mockup.containers.window;align=left;verticalAlign=top;spacingLeft=8;strokeColor2=#008cff;strokeColor3=#c4c4c4;fontColor=#666666;mainText=;fontSize=17;labelBackgroundColor=none;whiteSpace=wrap;" vertex="1" parent="1">
          <mxGeometry x="700" y="1150" width="250" height="440" as="geometry" />
        </mxCell>
        <mxCell id="fYolHv9IbK95dR3w9ptZ-70" value="&lt;font color=&quot;#000000&quot; style=&quot;font-size: 9px;&quot;&gt;Сума замовлення: **** грн.&lt;/font&gt;" style="strokeWidth=1;shadow=0;dashed=0;align=center;html=1;shape=mxgraph.mockup.text.textBox;fontColor=#666666;align=left;fontSize=17;spacingLeft=4;spacingTop=-3;whiteSpace=wrap;strokeColor=#000000;mainText=" vertex="1" parent="1">
          <mxGeometry x="769.99" y="1180" width="180.01" height="31" as="geometry" />
        </mxCell>
        <mxCell id="fYolHv9IbK95dR3w9ptZ-71" value="" style="verticalLabelPosition=bottom;shadow=0;dashed=0;align=center;html=1;verticalAlign=top;strokeWidth=1;shape=mxgraph.mockup.misc.shoppingCart;strokeColor=#0080f0;" vertex="1" parent="1">
          <mxGeometry x="919" y="1181" width="30" height="30" as="geometry" />
        </mxCell>
        <mxCell id="fYolHv9IbK95dR3w9ptZ-72" value="&lt;blockquote style=&quot;margin: 0 0 0 40px; border: none; padding: 0px;&quot;&gt;&lt;font color=&quot;#000000&quot;&gt;Пошук&lt;/font&gt;&lt;/blockquote&gt;" style="strokeWidth=1;shadow=0;dashed=0;align=center;html=1;shape=mxgraph.mockup.forms.searchBox;strokeColor=#000000;mainText=;strokeColor2=#008cff;fontColor=#666666;fontSize=17;align=left;spacingLeft=3;whiteSpace=wrap;" vertex="1" parent="1">
          <mxGeometry x="750" y="1215" width="150" height="30" as="geometry" />
        </mxCell>
        <mxCell id="fYolHv9IbK95dR3w9ptZ-73" value="" style="verticalLabelPosition=bottom;shadow=0;dashed=0;align=center;html=1;verticalAlign=top;strokeWidth=1;shape=mxgraph.mockup.forms.horSlider;strokeColor=#999999;sliderStyle=basic;sliderPos=95.625;handleStyle=circle;fillColor2=#ddeeff;direction=north;" vertex="1" parent="1">
          <mxGeometry x="919" y="1250" width="30" height="320" as="geometry" />
        </mxCell>
        <mxCell id="fYolHv9IbK95dR3w9ptZ-74" value="&lt;font face=&quot;Comic Sans MS&quot;&gt;&lt;font color=&quot;#6600cc&quot;&gt;Mental&lt;/font&gt;&lt;font color=&quot;#006600&quot;&gt;Hub&lt;/font&gt;&lt;/font&gt;" style="strokeWidth=1;shadow=0;dashed=0;align=center;html=1;shape=mxgraph.mockup.containers.window;align=left;verticalAlign=top;spacingLeft=8;strokeColor2=#008cff;strokeColor3=#c4c4c4;fontColor=#666666;mainText=;fontSize=17;labelBackgroundColor=none;whiteSpace=wrap;" vertex="1" parent="1">
          <mxGeometry x="1439.98" y="1150" width="250" height="440" as="geometry" />
        </mxCell>
        <mxCell id="fYolHv9IbK95dR3w9ptZ-80" value="&lt;font color=&quot;#000000&quot; style=&quot;font-size: 9px;&quot;&gt;Сума замовлення: **** грн.&lt;/font&gt;" style="strokeWidth=1;shadow=0;dashed=0;align=center;html=1;shape=mxgraph.mockup.text.textBox;fontColor=#666666;align=left;fontSize=17;spacingLeft=4;spacingTop=-3;whiteSpace=wrap;strokeColor=#000000;mainText=" vertex="1" parent="1">
          <mxGeometry x="1469.99" y="1250" width="180.01" height="31" as="geometry" />
        </mxCell>
        <mxCell id="fYolHv9IbK95dR3w9ptZ-82" value="&lt;font face=&quot;Ubuntu&quot;&gt;&lt;span style=&quot;font-size: 16px;&quot;&gt;Підтвердити&lt;br&gt;замовлення&lt;br&gt;&lt;/span&gt;&lt;/font&gt;" style="strokeWidth=1;shadow=0;dashed=0;align=center;html=1;shape=mxgraph.mockup.buttons.button;strokeColor=#666666;fontColor=#ffffff;mainText=;buttonStyle=round;fontSize=17;fontStyle=1;fillColor=#008cff;whiteSpace=wrap;" vertex="1" parent="1">
          <mxGeometry x="1501.23" y="1510" width="127.5" height="50" as="geometry" />
        </mxCell>
        <mxCell id="fYolHv9IbK95dR3w9ptZ-94" value="" style="html=1;shadow=0;dashed=0;shape=mxgraph.bootstrap.rrect;rSize=5;strokeColor=#292929;html=1;whiteSpace=wrap;fillColor=#FFFFFF;fontColor=#000000;" vertex="1" parent="1">
          <mxGeometry x="1460" y="1310" width="200" height="120" as="geometry" />
        </mxCell>
        <mxCell id="fYolHv9IbK95dR3w9ptZ-95" value="Книга№1" style="html=1;shadow=0;dashed=0;shape=mxgraph.bootstrap.topButton;strokeColor=inherit;fillColor=#F7F7F7;rSize=5;perimeter=none;whiteSpace=wrap;resizeWidth=1;align=left;spacing=10;" vertex="1" parent="fYolHv9IbK95dR3w9ptZ-94">
          <mxGeometry width="200" height="30" relative="1" as="geometry" />
        </mxCell>
        <mxCell id="fYolHv9IbK95dR3w9ptZ-96" value="Книга№2" style="strokeColor=inherit;fillColor=inherit;gradientColor=inherit;fontColor=inherit;html=1;shadow=0;dashed=0;perimeter=none;whiteSpace=wrap;resizeWidth=1;align=left;spacing=10;" vertex="1" parent="fYolHv9IbK95dR3w9ptZ-94">
          <mxGeometry width="200" height="30" relative="1" as="geometry">
            <mxPoint y="30" as="offset" />
          </mxGeometry>
        </mxCell>
        <mxCell id="fYolHv9IbK95dR3w9ptZ-97" value="Книга№3" style="strokeColor=#292929;fillColor=inherit;gradientColor=inherit;fontColor=inherit;html=1;shadow=0;dashed=0;perimeter=none;whiteSpace=wrap;resizeWidth=1;align=left;spacing=10;" vertex="1" parent="fYolHv9IbK95dR3w9ptZ-94">
          <mxGeometry width="200" height="30" relative="1" as="geometry">
            <mxPoint y="60" as="offset" />
          </mxGeometry>
        </mxCell>
        <mxCell id="fYolHv9IbK95dR3w9ptZ-98" value="Книга№4" style="strokeColor=inherit;fillColor=inherit;gradientColor=inherit;fontColor=inherit;html=1;shadow=0;dashed=0;shape=mxgraph.bootstrap.bottomButton;rSize=5;perimeter=none;whiteSpace=wrap;resizeWidth=1;resizeHeight=0;align=left;spacing=10;" vertex="1" parent="fYolHv9IbK95dR3w9ptZ-94">
          <mxGeometry y="1" width="200" height="30" relative="1" as="geometry">
            <mxPoint y="-30" as="offset" />
          </mxGeometry>
        </mxCell>
        <mxCell id="fYolHv9IbK95dR3w9ptZ-100" value="" style="verticalLabelPosition=bottom;verticalAlign=top;html=1;shape=mxgraph.basic.no_symbol;fillColor=#FF0000;" vertex="1" parent="fYolHv9IbK95dR3w9ptZ-94">
          <mxGeometry x="166" y="4" width="20" height="20" as="geometry" />
        </mxCell>
        <mxCell id="fYolHv9IbK95dR3w9ptZ-107" value="" style="verticalLabelPosition=bottom;verticalAlign=top;html=1;shape=mxgraph.basic.no_symbol;fillColor=#FF0000;" vertex="1" parent="fYolHv9IbK95dR3w9ptZ-94">
          <mxGeometry x="166" y="35" width="20" height="20" as="geometry" />
        </mxCell>
        <mxCell id="fYolHv9IbK95dR3w9ptZ-108" value="" style="verticalLabelPosition=bottom;verticalAlign=top;html=1;shape=mxgraph.basic.no_symbol;fillColor=#FF0000;" vertex="1" parent="fYolHv9IbK95dR3w9ptZ-94">
          <mxGeometry x="166" y="65" width="20" height="20" as="geometry" />
        </mxCell>
        <mxCell id="fYolHv9IbK95dR3w9ptZ-109" value="" style="verticalLabelPosition=bottom;verticalAlign=top;html=1;shape=mxgraph.basic.no_symbol;fillColor=#FF0000;" vertex="1" parent="fYolHv9IbK95dR3w9ptZ-94">
          <mxGeometry x="166" y="95" width="20" height="20" as="geometry" />
        </mxCell>
        <mxCell id="fYolHv9IbK95dR3w9ptZ-99" value="&lt;font color=&quot;#000000&quot;&gt;&lt;span style=&quot;font-size: 25px;&quot;&gt;Замовлення&lt;/span&gt;&lt;/font&gt;" style="strokeWidth=0;shadow=0;dashed=0;align=center;html=1;shape=mxgraph.mockup.forms.pwField;strokeColor=#FFFFFF;mainText=;align=left;fontColor=#666666;fontSize=17;spacingLeft=3;fontFamily=Ubuntu;fontSource=https%3A%2F%2Ffonts.googleapis.com%2Fcss%3Ffamily%3DUbuntu;" vertex="1" parent="1">
          <mxGeometry x="1486.02" y="1215" width="157.97" height="30" as="geometry" />
        </mxCell>
        <mxCell id="fYolHv9IbK95dR3w9ptZ-110" value="" style="verticalLabelPosition=bottom;shadow=0;dashed=0;align=center;html=1;verticalAlign=top;strokeWidth=1;shape=mxgraph.mockup.forms.horSlider;strokeColor=#999999;sliderStyle=basic;sliderPos=91.925;handleStyle=circle;fillColor2=#ddeeff;direction=north;" vertex="1" parent="1">
          <mxGeometry x="1660" y="1310" width="30" height="120" as="geometry" />
        </mxCell>
        <mxCell id="fYolHv9IbK95dR3w9ptZ-111" value="" style="endArrow=classic;html=1;rounded=0;exitX=1.004;exitY=0.502;exitDx=0;exitDy=0;exitPerimeter=0;entryX=0.004;entryY=0.5;entryDx=0;entryDy=0;entryPerimeter=0;" edge="1" parent="1" source="fYolHv9IbK95dR3w9ptZ-63" target="fYolHv9IbK95dR3w9ptZ-74">
          <mxGeometry width="50" height="50" relative="1" as="geometry">
            <mxPoint x="1380" y="1280" as="sourcePoint" />
            <mxPoint x="1430" y="1230" as="targetPoint" />
            <Array as="points">
              <mxPoint x="1390" y="1196" />
              <mxPoint x="1390" y="1370" />
            </Array>
          </mxGeometry>
        </mxCell>
        <mxCell id="fYolHv9IbK95dR3w9ptZ-112" value="" style="endArrow=classic;html=1;rounded=0;exitX=0;exitY=0.456;exitDx=0;exitDy=0;exitPerimeter=0;" edge="1" parent="1" source="fYolHv9IbK95dR3w9ptZ-36" target="fYolHv9IbK95dR3w9ptZ-64">
          <mxGeometry width="50" height="50" relative="1" as="geometry">
            <mxPoint x="1040" y="1370" as="sourcePoint" />
            <mxPoint x="960" y="1324" as="targetPoint" />
            <Array as="points">
              <mxPoint x="1050" y="1324" />
              <mxPoint x="1050" y="1370" />
            </Array>
          </mxGeometry>
        </mxCell>
        <mxCell id="fYolHv9IbK95dR3w9ptZ-113" value="" style="endArrow=classic;html=1;rounded=0;" edge="1" parent="1" source="fYolHv9IbK95dR3w9ptZ-12" target="fYolHv9IbK95dR3w9ptZ-34">
          <mxGeometry width="50" height="50" relative="1" as="geometry">
            <mxPoint x="1150" y="1040" as="sourcePoint" />
            <mxPoint x="1200" y="990" as="targetPoint" />
          </mxGeometry>
        </mxCell>
        <mxCell id="fYolHv9IbK95dR3w9ptZ-114" value="" style="endArrow=classic;html=1;rounded=0;exitX=1.011;exitY=0.409;exitDx=0;exitDy=0;exitPerimeter=0;" edge="1" parent="1" source="6fhiK-dv3YmNcR4Dkuwi-9" target="fYolHv9IbK95dR3w9ptZ-1">
          <mxGeometry width="50" height="50" relative="1" as="geometry">
            <mxPoint x="1240" y="510" as="sourcePoint" />
            <mxPoint x="1290" y="460" as="targetPoint" />
          </mxGeometry>
        </mxCell>
        <mxCell id="fYolHv9IbK95dR3w9ptZ-115" value="" style="endArrow=classic;html=1;rounded=0;exitX=0.014;exitY=0.466;exitDx=0;exitDy=0;exitPerimeter=0;" edge="1" parent="1" source="6fhiK-dv3YmNcR4Dkuwi-20" target="fYolHv9IbK95dR3w9ptZ-1">
          <mxGeometry width="50" height="50" relative="1" as="geometry">
            <mxPoint x="1240" y="510" as="sourcePoint" />
            <mxPoint x="1290" y="460" as="targetPoint" />
          </mxGeometry>
        </mxCell>
        <mxCell id="fYolHv9IbK95dR3w9ptZ-116" value="" style="endArrow=classic;html=1;rounded=0;exitX=0.989;exitY=0.511;exitDx=0;exitDy=0;exitPerimeter=0;" edge="1" parent="1" source="6fhiK-dv3YmNcR4Dkuwi-10" target="6fhiK-dv3YmNcR4Dkuwi-14">
          <mxGeometry width="50" height="50" relative="1" as="geometry">
            <mxPoint x="1240" y="510" as="sourcePoint" />
            <mxPoint x="1290" y="460" as="targetPoint" />
          </mxGeometry>
        </mxCell>
        <mxCell id="fYolHv9IbK95dR3w9ptZ-117" value="" style="endArrow=classic;html=1;rounded=0;exitX=0.028;exitY=0.439;exitDx=0;exitDy=0;exitPerimeter=0;" edge="1" parent="1" source="6fhiK-dv3YmNcR4Dkuwi-21" target="6fhiK-dv3YmNcR4Dkuwi-2">
          <mxGeometry width="50" height="50" relative="1" as="geometry">
            <mxPoint x="1240" y="510" as="sourcePoint" />
            <mxPoint x="1290" y="460" as="targetPoint" />
          </mxGeometry>
        </mxCell>
        <mxCell id="fYolHv9IbK95dR3w9ptZ-118" value="&lt;font size=&quot;1&quot; face=&quot;Ubuntu&quot;&gt;&lt;b style=&quot;font-size: 13px;&quot;&gt;Відстеження сну&lt;/b&gt;&lt;/font&gt;" style="text;html=1;align=center;verticalAlign=middle;resizable=0;points=[];autosize=1;strokeColor=none;fillColor=none;" vertex="1" parent="1">
          <mxGeometry x="1505.01" y="890" width="120" height="30" as="geometry" />
        </mxCell>
        <mxCell id="fYolHv9IbK95dR3w9ptZ-119" value="&lt;font face=&quot;Comic Sans MS&quot;&gt;&lt;font color=&quot;#6600cc&quot;&gt;Mental&lt;/font&gt;&lt;font color=&quot;#006600&quot;&gt;Hub&lt;/font&gt;&lt;/font&gt;" style="strokeWidth=1;shadow=0;dashed=0;align=center;html=1;shape=mxgraph.mockup.containers.window;align=left;verticalAlign=top;spacingLeft=8;strokeColor2=#008cff;strokeColor3=#c4c4c4;fontColor=#666666;mainText=;fontSize=17;labelBackgroundColor=none;whiteSpace=wrap;" vertex="1" parent="1">
          <mxGeometry x="1806" y="610" width="254" height="440" as="geometry" />
        </mxCell>
        <mxCell id="fYolHv9IbK95dR3w9ptZ-134" value="&lt;font color=&quot;#000000&quot;&gt;Доброго дня...&lt;/font&gt;" style="strokeWidth=1;shadow=0;dashed=0;align=center;html=1;shape=mxgraph.mockup.text.textBox;fontColor=#666666;align=left;fontSize=17;spacingLeft=4;spacingTop=-3;whiteSpace=wrap;strokeColor=#000000;mainText=" vertex="1" parent="1">
          <mxGeometry x="1806" y="1021" width="254" height="28.82" as="geometry" />
        </mxCell>
        <mxCell id="fYolHv9IbK95dR3w9ptZ-127" value="" style="html=1;verticalLabelPosition=bottom;align=center;labelBackgroundColor=#ffffff;verticalAlign=top;strokeWidth=2;strokeColor=#0080F0;shadow=0;dashed=0;shape=mxgraph.ios7.icons.mail;" vertex="1" parent="1">
          <mxGeometry x="2020" y="1027.16" width="30" height="16.5" as="geometry" />
        </mxCell>
        <mxCell id="fYolHv9IbK95dR3w9ptZ-135" value="" style="verticalLabelPosition=bottom;shadow=0;dashed=0;align=center;html=1;verticalAlign=top;strokeWidth=1;shape=mxgraph.mockup.containers.userMale;strokeColor=#000000;strokeColor2=#008cff;" vertex="1" parent="1">
          <mxGeometry x="1806" y="640" width="70" height="70" as="geometry" />
        </mxCell>
        <mxCell id="fYolHv9IbK95dR3w9ptZ-136" value="&lt;font color=&quot;#000000&quot;&gt;Консультант&lt;br&gt;******** ********&lt;br&gt;&lt;/font&gt;" style="strokeWidth=1;shadow=0;dashed=0;align=center;html=1;shape=mxgraph.mockup.text.textBox;fontColor=#666666;align=left;fontSize=17;spacingLeft=4;spacingTop=-3;whiteSpace=wrap;strokeColor=#000000;mainText=" vertex="1" parent="1">
          <mxGeometry x="1876" y="640" width="184" height="70" as="geometry" />
        </mxCell>
        <mxCell id="fYolHv9IbK95dR3w9ptZ-137" value="" style="endArrow=classic;html=1;rounded=0;" edge="1" parent="1" target="fYolHv9IbK95dR3w9ptZ-25">
          <mxGeometry width="50" height="50" relative="1" as="geometry">
            <mxPoint x="1280" y="850" as="sourcePoint" />
            <mxPoint x="1620" y="860" as="targetPoint" />
            <Array as="points">
              <mxPoint x="1400" y="850" />
              <mxPoint x="1400" y="830" />
            </Array>
          </mxGeometry>
        </mxCell>
        <mxCell id="fYolHv9IbK95dR3w9ptZ-138" value="" style="endArrow=classic;html=1;rounded=0;" edge="1" parent="1" source="fYolHv9IbK95dR3w9ptZ-27" target="fYolHv9IbK95dR3w9ptZ-119">
          <mxGeometry width="50" height="50" relative="1" as="geometry">
            <mxPoint x="1800" y="890" as="sourcePoint" />
            <mxPoint x="1850" y="840" as="targetPoint" />
            <Array as="points">
              <mxPoint x="1750" y="785" />
              <mxPoint x="1750" y="830" />
            </Array>
          </mxGeometry>
        </mxCell>
        <mxCell id="fYolHv9IbK95dR3w9ptZ-140" value="&lt;font face=&quot;Comic Sans MS&quot;&gt;&lt;font color=&quot;#6600cc&quot;&gt;Mental&lt;/font&gt;&lt;font color=&quot;#006600&quot;&gt;Hub&lt;/font&gt;&lt;/font&gt;" style="strokeWidth=1;shadow=0;dashed=0;align=center;html=1;shape=mxgraph.mockup.containers.window;align=left;verticalAlign=top;spacingLeft=8;strokeColor2=#008cff;strokeColor3=#c4c4c4;fontColor=#666666;mainText=;fontSize=17;labelBackgroundColor=none;whiteSpace=wrap;" vertex="1" parent="1">
          <mxGeometry x="340" y="610" width="254" height="440" as="geometry" />
        </mxCell>
        <mxCell id="fYolHv9IbK95dR3w9ptZ-141" value="&lt;font color=&quot;#000000&quot;&gt;Доброго дня...&lt;/font&gt;" style="strokeWidth=1;shadow=0;dashed=0;align=center;html=1;shape=mxgraph.mockup.text.textBox;fontColor=#666666;align=left;fontSize=17;spacingLeft=4;spacingTop=-3;whiteSpace=wrap;strokeColor=#000000;mainText=" vertex="1" parent="1">
          <mxGeometry x="340" y="1021" width="254" height="28.82" as="geometry" />
        </mxCell>
        <mxCell id="fYolHv9IbK95dR3w9ptZ-142" value="" style="html=1;verticalLabelPosition=bottom;align=center;labelBackgroundColor=#ffffff;verticalAlign=top;strokeWidth=2;strokeColor=#0080F0;shadow=0;dashed=0;shape=mxgraph.ios7.icons.mail;" vertex="1" parent="1">
          <mxGeometry x="554" y="1027.16" width="30" height="16.5" as="geometry" />
        </mxCell>
        <mxCell id="fYolHv9IbK95dR3w9ptZ-143" value="" style="verticalLabelPosition=bottom;shadow=0;dashed=0;align=center;html=1;verticalAlign=top;strokeWidth=1;shape=mxgraph.mockup.containers.userMale;strokeColor=#000000;strokeColor2=#008cff;" vertex="1" parent="1">
          <mxGeometry x="340" y="640" width="70" height="70" as="geometry" />
        </mxCell>
        <mxCell id="fYolHv9IbK95dR3w9ptZ-144" value="&lt;font color=&quot;#000000&quot;&gt;Консультант&lt;br&gt;******** ********&lt;br&gt;&lt;/font&gt;" style="strokeWidth=1;shadow=0;dashed=0;align=center;html=1;shape=mxgraph.mockup.text.textBox;fontColor=#666666;align=left;fontSize=17;spacingLeft=4;spacingTop=-3;whiteSpace=wrap;strokeColor=#000000;mainText=" vertex="1" parent="1">
          <mxGeometry x="410" y="640" width="184" height="70" as="geometry" />
        </mxCell>
        <mxCell id="fYolHv9IbK95dR3w9ptZ-145" value="&lt;font face=&quot;Ubuntu&quot;&gt;&lt;span style=&quot;font-size: 13px;&quot;&gt;&lt;b&gt;Зв&#39;язатись з &lt;br&gt;консультантом&lt;/b&gt;&lt;/span&gt;&lt;/font&gt;" style="text;html=1;align=center;verticalAlign=middle;resizable=0;points=[];autosize=1;strokeColor=none;fillColor=none;" vertex="1" parent="1">
          <mxGeometry x="764.99" y="765" width="120" height="40" as="geometry" />
        </mxCell>
        <mxCell id="fYolHv9IbK95dR3w9ptZ-146" value="" style="endArrow=classic;html=1;rounded=0;exitX=0.009;exitY=0.538;exitDx=0;exitDy=0;exitPerimeter=0;" edge="1" parent="1" source="fYolHv9IbK95dR3w9ptZ-4" target="fYolHv9IbK95dR3w9ptZ-16">
          <mxGeometry width="50" height="50" relative="1" as="geometry">
            <mxPoint x="930" y="760" as="sourcePoint" />
            <mxPoint x="980" y="710" as="targetPoint" />
            <Array as="points">
              <mxPoint x="1030" y="786" />
              <mxPoint x="1030" y="830" />
            </Array>
          </mxGeometry>
        </mxCell>
        <mxCell id="fYolHv9IbK95dR3w9ptZ-147" value="" style="endArrow=classic;html=1;rounded=0;exitX=-0.017;exitY=0.439;exitDx=0;exitDy=0;exitPerimeter=0;" edge="1" parent="1" source="fYolHv9IbK95dR3w9ptZ-18" target="fYolHv9IbK95dR3w9ptZ-140">
          <mxGeometry width="50" height="50" relative="1" as="geometry">
            <mxPoint x="770" y="870" as="sourcePoint" />
            <mxPoint x="820" y="820" as="targetPoint" />
            <Array as="points">
              <mxPoint x="640" y="783" />
              <mxPoint x="640" y="830" />
            </Array>
          </mxGeometry>
        </mxCell>
        <mxCell id="fYolHv9IbK95dR3w9ptZ-149" value="" style="endArrow=classic;html=1;rounded=0;exitX=0.996;exitY=0.109;exitDx=0;exitDy=0;exitPerimeter=0;" edge="1" parent="1" source="fYolHv9IbK95dR3w9ptZ-1" target="fYolHv9IbK95dR3w9ptZ-43">
          <mxGeometry width="50" height="50" relative="1" as="geometry">
            <mxPoint x="1470" y="630" as="sourcePoint" />
            <mxPoint x="1520" y="580" as="targetPoint" />
            <Array as="points">
              <mxPoint x="1390" y="658" />
              <mxPoint x="1390" y="560" />
              <mxPoint x="1640" y="560" />
              <mxPoint x="1640" y="260" />
            </Array>
          </mxGeometry>
        </mxCell>
        <mxCell id="fYolHv9IbK95dR3w9ptZ-150" value="&lt;font face=&quot;Ubuntu&quot;&gt;&lt;span style=&quot;font-size: 11px;&quot;&gt;Вийти з&lt;br&gt;акаунту&lt;br&gt;&lt;/span&gt;&lt;/font&gt;" style="strokeWidth=1;shadow=0;dashed=0;align=center;html=1;shape=mxgraph.mockup.buttons.button;strokeColor=#666666;fontColor=#ffffff;mainText=;buttonStyle=round;fontSize=17;fontStyle=1;fillColor=#008cff;verticalAlign=middle;horizontal=1;whiteSpace=wrap;labelBackgroundColor=none;labelBorderColor=none;spacing=0;" vertex="1" parent="1">
          <mxGeometry x="1840" y="410" width="110" height="40" as="geometry" />
        </mxCell>
      </root>
    </mxGraphModel>
  </diagram>
</mxfile>
